<svg width="43" height="39" viewBox="0 0 43 39" fill="none" xmlns="http://www.w3.org/2000/svg">
<path d="M40.7841 7.72727V31H39.3636V7.72727H40.7841Z" fill="#444444"/>
<path d="M1.32102 10.5455H6.54545L10.9773 21.3523H11.1818L15.6136 10.5455H20.8381V28H16.7301V17.2784H16.5852L12.392 27.8892H9.76705L5.57386 17.2188H5.42898V28H1.32102V10.5455ZM29.5888 28.2472C28.2195 28.2472 27.0376 27.9773 26.0433 27.4375C25.0547 26.892 24.2933 26.1165 23.7592 25.1108C23.2308 24.0994 22.9666 22.8977 22.9666 21.5057C22.9666 20.1534 23.2337 18.9716 23.7678 17.9602C24.3018 16.9432 25.0547 16.1534 26.0263 15.5909C26.9979 15.0227 28.1428 14.7386 29.4609 14.7386C30.3928 14.7386 31.245 14.8835 32.0178 15.1733C32.7905 15.4631 33.4581 15.892 34.0206 16.4602C34.5831 17.0284 35.0206 17.7301 35.3331 18.5653C35.6456 19.3949 35.8018 20.3466 35.8018 21.4205V22.4602H24.424V20.0398H31.924C31.9183 19.5966 31.8132 19.2017 31.6087 18.8551C31.4041 18.5085 31.1229 18.2386 30.7649 18.0455C30.4126 17.8466 30.0064 17.7472 29.5462 17.7472C29.0803 17.7472 28.6626 17.8523 28.2933 18.0625C27.924 18.267 27.6314 18.5483 27.4155 18.9062C27.1996 19.2585 27.0859 19.6591 27.0746 20.108V22.571C27.0746 23.1051 27.1797 23.5739 27.3899 23.9773C27.6001 24.375 27.8984 24.6847 28.2848 24.9062C28.6712 25.1278 29.1314 25.2386 29.6655 25.2386C30.0348 25.2386 30.37 25.1875 30.6712 25.0852C30.9723 24.983 31.2308 24.8324 31.4467 24.6335C31.6626 24.4347 31.8246 24.1903 31.9325 23.9006L35.7592 24.0114C35.6001 24.8693 35.2507 25.6165 34.7109 26.2528C34.1768 26.8835 33.4751 27.375 32.6058 27.7273C31.7365 28.0739 30.7308 28.2472 29.5888 28.2472Z" fill="#1DAD79"/>
</svg>
